PathFileType	4	(X/Y/Z)	 s06c0202.trc
DataRate	CameraRate	NumFrames	NumMarkers	Units	OrigDataRate	OrigDataStartFrame	OrigNumFrames
200	200	4	48	mm	200	1001	2000
Frame#	Time	racr			lacr			c7			jug			rlel			rdr			llel			ldr			s2			lic			ric			lasi			rasi			rpsi			lpsi			rgt			lgt			rth1			rth2			rth3			rth4			rlfc			rmfc			rsh1			rsh2			rsh3			rsh4			rlmal			rcal			rtoe			rmt5			lth1			lth2			lth4			lth3			llfc			lmfc			llmal			lcal			lmt5			lsh1			lsh2			lsh3			lsh4			ltoe			SBIKE			LBIKE			RBIKE			
		X1	Y1	Z1	X2	Y2	Z2	X3	Y3	Z3	X4	Y4	Z4	X5	Y5	Z5	X6	Y6	Z6	X7	Y7	Z7	X8	Y8	Z8	X9	Y9	Z9	X10	Y10	Z10	X11	Y11	Z11	X12	Y12	Z12	X13	Y13	Z13	X14	Y14	Z14	X15	Y15	Z15	X16	Y16	Z16	X17	Y17	Z17	X18	Y18	Z18	X19	Y19	Z19	X20	Y20	Z20	X21	Y21	Z21	X22	Y22	Z22	X23	Y23	Z23	X24	Y24	Z24	X25	Y25	Z25	X26	Y26	Z26	X27	Y27	Z27	X28	Y28	Z28	X29	Y29	Z29	X30	Y30	Z30	X31	Y31	Z31	X32	Y32	Z32	X33	Y33	Z33	X34	Y34	Z34	X35	Y35	Z35	X36	Y36	Z36	X37	Y37	Z37	X38	Y38	Z38	X39	Y39	Z39	X40	Y40	Z40	X41	Y41	Z41	X42	Y42	Z42	X43	Y43	Z43	X44	Y44	Z44	X45	Y45	Z45	X46	Y46	Z46	X47	Y47	Z47	X48	Y48	Z48	
1001	5.0050	538.362284	1219.188188	-54.614292	567.541413	1200.431047	-369.651893	546.057336	1311.482293	-214.277552	523.463906	1145.915367	-210.809366	469.314532	982.537701	67.794216	647.065082	915.464199	-55.107937	472.016721	982.258623	-510.466692	649.874795	915.659111	-397.488923	-3.983125	1134.230659	-251.662192	161.445209	1087.278506	-399.093218	121.342700	1106.031933	-69.557250	172.938686	1040.976408	-356.878732	147.964108	1088.027095	-89.680859	22.894164	1172.027341	-216.157294	30.328942	1167.488846	-276.289723	97.155900	1036.764921	-36.288154	135.063016	1018.876312	-431.279558	192.895934	940.476552	-14.946063	268.789108	889.826787	-16.689786	307.265034	811.503489	-20.067139	294.391580	915.163874	-30.563483	355.932856	715.112088	-36.310163	361.628828	692.104785	-143.387801	325.138594	593.138280	-15.225450	328.767485	507.570656	-35.311822	290.137820	430.123616	-43.607074	352.528314	507.818369	-67.958737	264.621431	350.731115	-51.271771	201.440805	323.505104	-100.993875	476.130080	289.661596	-97.063445	377.111534	273.581965	-28.343550	195.885072	925.221663	-439.678003	273.667884	886.938059	-432.698329	296.632069	913.076049	-419.112100	323.483196	812.795186	-430.777649	358.795048	711.546048	-401.061371	357.353405	700.468295	-284.877464	58.906720	503.756864	-371.849275	-9.400537	535.858787	-322.870889	87.136572	366.777984	-399.222530	282.344286	635.900840	-415.344623	225.009660	576.468835	-387.327502	141.373858	545.785019	-383.276549	240.827082	563.314782	-353.102403	150.508361	304.910567	-343.261338	-202.833838	867.944755	-208.022555	-49.307966	83.446521	-414.637891	-49.194958	79.929250	-17.120703	
1002	5.0100	538.604427	1220.524241	-55.062764	567.550013	1202.076343	-370.795480	546.390441	1312.758949	-215.204605	523.618142	1147.401082	-211.786748	469.778192	983.916419	66.970622	647.640874	915.883976	-55.153305	472.500326	982.337501	-510.894787	650.180107	915.976612	-397.509398	-3.130370	1134.886304	-250.698493	161.338470	1088.801937	-398.998715	121.708251	1107.302605	-68.786060	173.609009	1042.807602	-356.118815	148.571564	1090.233475	-88.512356	23.560920	1172.610036	-215.253550	30.743472	1168.452293	-275.233729	96.178425	1035.084779	-36.305479	136.705338	1021.577512	-430.517865	190.289152	935.486394	-13.922866	264.969483	882.470423	-15.294433	300.681729	802.723877	-20.309480	291.490328	907.044663	-28.964910	348.347412	705.547470	-35.665815	352.443843	682.290496	-143.198121	318.850894	583.634291	-14.386245	323.385888	498.010882	-34.687690	285.784371	420.143278	-42.893555	346.991882	498.622912	-67.445805	261.377906	340.606107	-50.596208	198.156148	313.897682	-100.152549	472.649125	278.639071	-97.212734	373.827784	262.853167	-28.162365	198.428502	929.543682	-438.780765	277.165065	893.127433	-431.847470	299.349035	919.526531	-417.392768	328.703689	820.040445	-430.727976	364.975845	719.311361	-400.716236	359.824566	707.903391	-286.221257	63.173983	514.222878	-371.797094	-5.006441	546.680067	-323.040484	90.958525	377.133460	-399.120182	288.042215	644.238572	-415.183157	230.072014	585.324308	-387.080105	146.067585	555.489796	-383.156702	245.720225	572.041300	-352.844825	154.143623	315.059747	-343.147454	-202.819495	867.958171	-207.845535	-49.310736	83.493594	-414.613376	-49.201094	79.932255	-17.103502	
1003	5.0150	538.956081	1221.918066	-55.642262	567.658476	1203.467214	-371.963382	547.177071	1314.221085	-216.282000	523.819136	1148.819609	-212.850726	470.336084	985.306526	66.134924	648.211533	916.190620	-55.202481	473.072858	982.339906	-511.259181	650.397381	916.226536	-397.380071	-2.315946	1135.805243	-249.602819	161.088423	1090.382832	-398.817974	122.454524	1108.710171	-67.922641	174.280703	1044.840072	-355.390282	149.373387	1090.088526	-86.773997	24.338182	1173.625806	-213.955700	31.139211	1169.537587	-274.003316	95.693804	1033.741740	-35.957520	138.009796	1024.602421	-429.524816	188.720836	930.279127	-12.613150	260.709244	874.996254	-14.050454	294.466402	794.872376	-19.697109	288.395822	898.814479	-27.610643	340.050199	696.250262	-35.186811	342.976841	673.352271	-142.347776	312.104208	574.136183	-13.786533	317.537568	488.723882	-34.053153	280.878665	410.334497	-42.216475	340.572621	489.641715	-66.919223	257.549410	330.759348	-49.853088	194.828556	303.983927	-99.759921	468.569085	267.712890	-97.340093	369.878980	252.506017	-27.957127	200.715529	934.415993	-437.550147	280.284488	899.686722	-431.050409	301.826062	926.357702	-415.883315	333.467165	828.057196	-430.948901	371.116171	727.461676	-400.268320	365.330096	715.883215	-285.774942	68.038060	524.434288	-371.723725	-0.488738	556.931030	-322.772287	95.452036	387.440307	-399.038934	293.764499	652.734940	-414.681915	235.340544	594.462244	-386.737550	151.071404	565.093561	-382.981419	250.814243	580.832960	-352.512931	158.439945	324.944567	-342.612091	-202.804290	867.937251	-207.660899	-49.158736	83.607260	-414.714970	-49.180871	79.929945	-17.076475	
1004	5.0200	539.310644	1223.550930	-55.747516	567.971509	1204.655274	-373.107975	548.250811	1315.729786	-217.499893	523.953650	1150.319079	-213.826986	470.875779	986.865613	65.393632	648.722994	916.371190	-55.171143	473.567791	982.447153	-511.839260	650.713824	916.395234	-397.012443	-1.594188	1136.984475	-247.975787	160.721737	1091.958259	-398.471609	123.676077	1110.387010	-67.046145	174.582633	1046.811419	-354.613514	149.728954	1090.502502	-85.132269	25.520434	1174.477952	-212.633630	31.660724	1170.958895	-272.759009	95.618574	1032.632736	-35.621400	139.143246	1028.183459	-428.372892	186.740803	925.787262	-11.455221	256.279308	867.855555	-13.606514	287.569529	786.660125	-20.133472	285.143156	891.084042	-26.317968	330.729850	687.163081	-34.966652	332.932618	663.622828	-141.483643	304.805962	564.986285	-13.361436	311.229007	479.602598	-33.640172	275.445115	400.734702	-41.655328	334.034272	480.846818	-66.718827	253.215800	321.433643	-49.189352	190.423576	295.304287	-98.919155	463.872426	257.031030	-97.483514	365.397642	242.389100	-27.814861	202.694833	939.687238	-436.173524	283.097374	906.617444	-430.110056	304.038292	933.580021	-414.484985	337.765046	836.194679	-430.785944	377.233833	736.033559	-399.742020	371.883874	724.724188	-284.766008	73.086280	534.510541	-371.556125	4.296091	566.880895	-322.614734	100.625188	397.573599	-398.915584	299.555327	661.711599	-414.196001	240.771592	603.601527	-386.383635	156.344459	574.810867	-382.716750	256.107995	589.886791	-352.166243	163.559286	335.042850	-342.513259	-202.757806	868.017879	-207.628053	-49.155186	83.662416	-414.687209	-49.175909	79.928569	-17.066968	
